<svg width="232" height="184" viewBox="0 0 232 184" fill="none" xmlns="http://www.w3.org/2000/svg">
<path d="M231.112 33.8076H0.887634V150.198H231.112V33.8076Z" fill="#E62A48"/>
<path d="M99.0627 0V27.7918L101.885 25.9186V0H99.0627Z" fill="white"/>
<path d="M105.273 0V27.7918L108.095 25.9186V0H105.273Z" fill="white"/>
<path d="M111.484 0V27.7918L114.306 25.9186V0H111.484Z" fill="white"/>
<path d="M117.694 0V27.7918L120.516 25.9186V0H117.694Z" fill="white"/>
<path d="M123.905 0V27.7918L126.727 25.9186V0H123.905Z" fill="white"/>
<path d="M130.115 0V27.7918L132.937 25.9186V0H130.115Z" fill="white"/>
<path d="M130.115 158.081V184H132.937V156.208L130.115 158.081Z" fill="white"/>
<path d="M123.905 158.081V184H126.727V156.208L123.905 158.081Z" fill="white"/>
<path d="M117.694 158.081V184H120.516V156.208L117.694 158.081Z" fill="white"/>
<path d="M111.484 158.081V184H114.306V156.208L111.484 158.081Z" fill="white"/>
<path d="M105.273 158.081V184H108.095V156.208L105.273 158.081Z" fill="white"/>
<path d="M99.0627 158.081V184H101.885V156.208L99.0627 158.081Z" fill="white"/>
<mask id="mask0_320_1231" style="mask-type:luminance" maskUnits="userSpaceOnUse" x="1" y="0" width="231" height="184">
<path d="M231.225 0H1V184H231.225V0Z" fill="white"/>
</mask>
<g mask="url(#mask0_320_1231)">
<path d="M217.431 86.0653V81.3883H202.821V86.0653H207.361V102.618H212.891V86.0653H217.431ZM190.834 86.2574C192.305 86.2574 193.933 86.8278 195.115 87.9445C196.104 88.8991 196.84 90.364 196.84 92.0211C196.84 93.6421 196.104 95.1071 195.115 96.0977C194.126 97.0823 192.715 97.7548 190.834 97.7548C188.983 97.7548 187.542 97.0523 186.517 96.0677C185.715 95.3052 184.823 93.9964 184.823 92.1232C184.823 90.6282 185.365 89.0672 186.517 87.9505C187.669 86.7977 189.303 86.2574 190.834 86.2574ZM202.598 92.0151C202.598 89.1813 201.513 86.1913 199.24 84.06C197.063 81.9887 194 80.908 190.834 80.908C187.669 80.908 184.599 81.9887 182.429 84.06C180.162 86.1913 179.07 89.1873 179.07 92.0151C179.07 94.8189 180.156 97.7788 182.429 99.9402C184.605 102.012 187.669 103.092 190.834 103.092C194 103.092 197.069 102.012 199.24 99.9402C201.513 97.7788 202.598 94.8189 202.598 92.0151ZM178.847 86.0653V81.3883H164.237V86.0653H168.778V102.618H174.307V86.0653H178.847ZM151.901 85.651H152.956C154.168 85.651 155.096 85.9692 155.609 86.4795C156.091 86.9238 156.344 87.6263 156.344 88.2627C156.344 88.9291 156.055 89.6316 155.639 90.0458C154.97 90.6822 153.788 90.9044 152.956 90.9044H151.901V85.651ZM146.371 81.3883V102.618H151.901V94.4707L157.207 102.618H164.081L157.4 93.9303C158.389 93.7382 159.51 93.2639 160.342 92.4654C161.397 91.4447 162.036 89.8537 162.036 88.0405C162.036 86.3535 161.427 84.5103 160.216 83.2675C158.648 81.6464 156.604 81.3883 155.006 81.3883H146.371ZM132.371 86.2574C133.842 86.2574 135.47 86.8278 136.652 87.9445C137.64 88.8991 138.376 90.364 138.376 92.0211C138.376 93.6421 137.64 95.1071 136.652 96.0977C135.663 97.0823 134.252 97.7548 132.371 97.7548C130.519 97.7548 129.078 97.0523 128.053 96.0677C127.251 95.3052 126.359 93.9964 126.359 92.1232C126.359 90.6282 126.902 89.0672 128.053 87.9505C129.205 86.7977 130.833 86.2574 132.371 86.2574ZM144.134 92.0151C144.134 89.1813 143.049 86.1913 140.776 84.06C138.599 81.9887 135.536 80.908 132.371 80.908C129.205 80.908 126.136 81.9887 123.965 84.06C121.698 86.1913 120.607 89.1873 120.607 92.0151C120.607 94.8189 121.692 97.7788 123.965 99.9402C126.142 102.012 129.205 103.092 132.371 103.092C135.536 103.092 138.605 102.012 140.776 99.9402C143.043 97.7788 144.134 94.8189 144.134 92.0151ZM119.328 95.5213C117.381 97.6527 115.331 97.7488 114.499 97.7488C112.931 97.7488 111.46 97.1424 110.537 96.2838C109.416 95.2331 108.813 93.6121 108.813 92.1472C108.813 90.6522 109.355 88.9951 110.664 87.7884C111.689 86.8638 112.901 86.3895 114.499 86.3895C115.427 86.3895 117.538 86.5156 119.328 88.713V82.1267C117.025 81.2021 115.367 81.0461 114.342 81.0461C111.019 81.0461 108.173 82.4449 106.286 84.3542C104.369 86.2934 103.06 89.1633 103.06 92.1832C103.06 94.951 104.212 97.8508 106.286 99.9162C108.047 101.633 110.827 103.098 114.535 103.098C115.91 103.098 117.121 102.846 119.328 102.048V95.5213ZM93.0511 81.3883H80.9375V102.618H93.0511V97.9409H86.4667V94.2785H92.7013V89.6015H86.4667V86.0713H93.0511V81.3883ZM66.5507 81.3883V102.618H78.7306V97.9409H72.0799V81.3883H66.5507ZM51.5248 81.3883V102.618H63.7047V97.9409H57.054V81.3883H51.5248ZM36.2757 94.8489L38.6092 87.9745L41.009 94.8489H36.2757ZM43.7887 102.618H49.7038L41.6783 81.3883H35.6366L27.4543 102.618H33.3031L34.7442 99.0516H42.4803L43.7887 102.618ZM11.536 100.709C13.0675 101.759 14.4122 102.27 14.7619 102.396C16.3296 102.966 17.6079 103.098 18.9525 103.098C21.2197 103.098 23.4265 102.75 25.2475 100.931C26.779 99.4058 27.2614 97.5266 27.2614 95.5814C27.2614 94.1164 26.972 92.9397 25.8866 91.7929C24.7651 90.5862 23.3602 90.1059 22.0216 89.6916L20.3273 89.1813C19.0188 88.797 18.6329 88.4188 18.4762 88.2267C18.2531 87.9385 18.1867 87.6563 18.1867 87.272C18.1867 86.7917 18.4098 86.4435 18.7294 86.1253C19.2721 85.615 20.0077 85.4889 20.5504 85.4889C21.286 85.4889 22.5341 85.615 24.1923 86.9238L26.3991 82.6251C24.3852 81.5744 21.9251 80.908 19.8147 80.908C17.228 80.908 15.4372 81.8326 14.3458 82.9133C13.4173 83.8378 12.3983 85.4289 12.3983 88.0405C12.3983 89.1212 12.5249 90.6162 13.6102 91.7989C14.4725 92.7536 15.7869 93.2339 16.6793 93.516L18.1204 93.9603C19.4952 94.3746 20.3273 94.5967 20.8699 95.0771C21.3161 95.4613 21.4789 95.9356 21.4789 96.3499C21.4789 96.8902 21.2558 97.3705 20.9363 97.6887C20.5865 98.073 19.9112 98.4212 18.7957 98.4212C16.8783 98.4212 15.0875 97.3705 13.9057 96.2538L11.536 100.709Z" fill="black"/>
</g>
</svg>
